<svg width="220" height="42" viewBox="0 0 220 42" fill="none" xmlns="http://www.w3.org/2000/svg">
<path d="M2.72 24.904V21.576L16.48 13.864V17.256L5.888 23.112V23.368L16.48 29.192V32.616L2.72 24.904ZM29.4275 33.384C26.5902 33.384 24.4782 32.3813 23.0915 30.376C21.7262 28.3707 21.0435 25.5227 21.0435 21.832C21.0435 18.1413 21.7262 15.2933 23.0915 13.288C24.4782 11.2827 26.5902 10.28 29.4275 10.28C30.5155 10.28 31.4542 10.4293 32.2435 10.728C33.0542 11.0053 33.7475 11.4 34.3235 11.912C34.8995 12.4027 35.3795 12.9893 35.7635 13.672C36.1688 14.3333 36.4995 15.048 36.7555 15.816L33.5235 16.904C33.3528 16.392 33.1608 15.912 32.9475 15.464C32.7342 15.016 32.4675 14.632 32.1475 14.312C31.8275 13.992 31.4435 13.736 30.9955 13.544C30.5688 13.352 30.0355 13.256 29.3955 13.256C27.8168 13.256 26.6648 13.864 25.9395 15.08C25.2142 16.2747 24.8515 17.896 24.8515 19.944V23.72C24.8515 25.768 25.2142 27.4 25.9395 28.616C26.6648 29.8107 27.8168 30.408 29.3955 30.408C30.0355 30.408 30.5688 30.312 30.9955 30.12C31.4435 29.928 31.8275 29.672 32.1475 29.352C32.4675 29.032 32.7342 28.648 32.9475 28.2C33.1608 27.752 33.3528 27.272 33.5235 26.76L36.7555 27.848C36.4995 28.616 36.1688 29.3413 35.7635 30.024C35.3795 30.6853 34.8995 31.272 34.3235 31.784C33.7475 32.2747 33.0542 32.6693 32.2435 32.968C31.4542 33.2453 30.5155 33.384 29.4275 33.384ZM41.031 37.416L51.815 8.68H54.919L44.135 37.416H41.031ZM60.2825 29.224L70.8745 23.368V23.112L60.2825 17.288V13.864L74.0425 21.576V24.904L60.2825 32.616V29.224Z" fill="#12F7D6"/>
<path d="M95.24 33.384C92.4027 33.384 90.2907 32.3813 88.904 30.376C87.5387 28.3707 86.856 25.5227 86.856 21.832C86.856 18.1413 87.5387 15.2933 88.904 13.288C90.2907 11.2827 92.4027 10.28 95.24 10.28C96.328 10.28 97.2667 10.4293 98.056 10.728C98.8667 11.0053 99.56 11.4 100.136 11.912C100.712 12.4027 101.192 12.9893 101.576 13.672C101.981 14.3333 102.312 15.048 102.568 15.816L99.336 16.904C99.1653 16.392 98.9733 15.912 98.76 15.464C98.5467 15.016 98.28 14.632 97.96 14.312C97.64 13.992 97.256 13.736 96.808 13.544C96.3813 13.352 95.848 13.256 95.208 13.256C93.6293 13.256 92.4773 13.864 91.752 15.08C91.0267 16.2747 90.664 17.896 90.664 19.944V23.72C90.664 25.768 91.0267 27.4 91.752 28.616C92.4773 29.8107 93.6293 30.408 95.208 30.408C95.848 30.408 96.3813 30.312 96.808 30.12C97.256 29.928 97.64 29.672 97.96 29.352C98.28 29.032 98.5467 28.648 98.76 28.2C98.9733 27.752 99.1653 27.272 99.336 26.76L102.568 27.848C102.312 28.616 101.981 29.3413 101.576 30.024C101.192 30.6853 100.712 31.272 100.136 31.784C99.56 32.2747 98.8667 32.6693 98.056 32.968C97.2667 33.2453 96.328 33.384 95.24 33.384ZM113.788 33.384C112.572 33.384 111.473 33.1813 110.492 32.776C109.532 32.3707 108.71 31.7947 108.028 31.048C107.366 30.3013 106.854 29.3947 106.492 28.328C106.129 27.2613 105.948 26.0667 105.948 24.744C105.948 23.4213 106.129 22.2267 106.492 21.16C106.854 20.0933 107.366 19.1867 108.028 18.44C108.71 17.6933 109.532 17.1173 110.492 16.712C111.473 16.3067 112.572 16.104 113.788 16.104C115.004 16.104 116.092 16.3067 117.052 16.712C118.033 17.1173 118.854 17.6933 119.516 18.44C120.198 19.1867 120.721 20.0933 121.083 21.16C121.446 22.2267 121.628 23.4213 121.628 24.744C121.628 26.0667 121.446 27.2613 121.083 28.328C120.721 29.3947 120.198 30.3013 119.516 31.048C118.854 31.7947 118.033 32.3707 117.052 32.776C116.092 33.1813 115.004 33.384 113.788 33.384ZM113.788 30.632C115.068 30.632 116.081 30.248 116.828 29.48C117.596 28.6907 117.98 27.528 117.98 25.992V23.496C117.98 21.96 117.596 20.808 116.828 20.04C116.081 19.2507 115.068 18.856 113.788 18.856C112.508 18.856 111.484 19.2507 110.716 20.04C109.969 20.808 109.596 21.96 109.596 23.496V25.992C109.596 27.528 109.969 28.6907 110.716 29.48C111.484 30.248 112.508 30.632 113.788 30.632ZM136.559 30.184H136.367C135.876 31.1867 135.226 31.976 134.415 32.552C133.604 33.1067 132.591 33.384 131.375 33.384C129.434 33.384 127.887 32.6587 126.735 31.208C125.583 29.7573 125.007 27.6027 125.007 24.744C125.007 21.8853 125.583 19.7307 126.735 18.28C127.887 16.8293 129.434 16.104 131.375 16.104C132.591 16.104 133.604 16.392 134.415 16.968C135.226 17.5227 135.876 18.3013 136.367 19.304H136.559V9.32H140.047V33H136.559V30.184ZM132.815 30.536C133.327 30.536 133.807 30.472 134.255 30.344C134.703 30.216 135.098 30.024 135.439 29.768C135.78 29.512 136.047 29.2027 136.239 28.84C136.452 28.456 136.559 28.008 136.559 27.496V21.992C136.559 21.48 136.452 21.0427 136.239 20.68C136.047 20.296 135.78 19.976 135.439 19.72C135.098 19.464 134.703 19.272 134.255 19.144C133.807 19.016 133.327 18.952 132.815 18.952C131.492 18.952 130.468 19.3573 129.743 20.168C129.039 20.9787 128.687 22.056 128.687 23.4V26.088C128.687 27.432 129.039 28.5093 129.743 29.32C130.468 30.1307 131.492 30.536 132.815 30.536ZM152.515 33.384C151.256 33.384 150.125 33.1813 149.123 32.776C148.12 32.3707 147.277 31.7947 146.595 31.048C145.912 30.3013 145.389 29.4053 145.027 28.36C144.664 27.2933 144.483 26.0987 144.483 24.776C144.483 23.4533 144.664 22.2587 145.027 21.192C145.411 20.1253 145.933 19.2187 146.595 18.472C147.277 17.704 148.099 17.1173 149.059 16.712C150.019 16.3067 151.085 16.104 152.259 16.104C153.411 16.104 154.456 16.3067 155.395 16.712C156.333 17.096 157.133 17.6507 157.795 18.376C158.456 19.1013 158.957 19.9653 159.299 20.968C159.661 21.9707 159.843 23.08 159.843 24.296V25.608H148.003V26.152C148.003 27.4533 148.408 28.52 149.219 29.352C150.029 30.1627 151.149 30.568 152.579 30.568C153.645 30.568 154.552 30.344 155.299 29.896C156.067 29.4267 156.685 28.808 157.155 28.04L159.331 29.96C158.776 30.92 157.923 31.7307 156.771 32.392C155.64 33.0533 154.221 33.384 152.515 33.384ZM152.259 18.76C151.64 18.76 151.064 18.8667 150.531 19.08C150.019 19.2933 149.571 19.6027 149.187 20.008C148.824 20.392 148.536 20.8507 148.323 21.384C148.109 21.9173 148.003 22.504 148.003 23.144V23.368H156.291V23.048C156.291 21.7467 155.917 20.712 155.171 19.944C154.445 19.1547 153.475 18.76 152.259 18.76ZM179.414 33H163.286V29.832L175.03 13.672H163.734V10.664H178.966V13.832L167.222 29.992H179.414V33ZM196.682 33C195.679 33 194.922 32.744 194.41 32.232C193.919 31.72 193.62 31.048 193.514 30.216H193.354C193.034 31.2187 192.447 31.9973 191.594 32.552C190.762 33.1067 189.695 33.384 188.394 33.384C186.708 33.384 185.364 32.9467 184.362 32.072C183.359 31.176 182.858 29.9493 182.858 28.392C182.858 26.792 183.444 25.576 184.618 24.744C185.812 23.8907 187.636 23.464 190.09 23.464H193.258V22.184C193.258 19.944 192.074 18.824 189.706 18.824C188.639 18.824 187.775 19.0373 187.114 19.464C186.452 19.8693 185.898 20.4133 185.45 21.096L183.37 19.4C183.839 18.504 184.628 17.736 185.738 17.096C186.847 16.4347 188.276 16.104 190.026 16.104C192.116 16.104 193.759 16.6053 194.954 17.608C196.148 18.6107 196.746 20.0613 196.746 21.96V30.248H198.826V33H196.682ZM189.385 30.824C190.516 30.824 191.444 30.568 192.17 30.056C192.895 29.544 193.258 28.8827 193.258 28.072V25.672H190.154C187.636 25.672 186.378 26.4293 186.378 27.944V28.584C186.378 29.3307 186.644 29.896 187.178 30.28C187.711 30.6427 188.447 30.824 189.385 30.824ZM202.941 9.32H206.429V23.624H206.589L209.181 20.968L213.821 16.488H217.949L211.261 22.984L218.685 33H214.493L208.733 24.968L206.429 27.112V33H202.941V9.32Z" fill="white"/>
</svg>
